<svg width="20" height="21" viewBox="0 0 20 21" fill="none" xmlns="http://www.w3.org/2000/svg">
<path fill-rule="evenodd" clip-rule="evenodd" d="M3.23223 6.23221C3.70107 5.76336 4.33696 5.49997 5 5.49997H7.5C7.96024 5.49997 8.33333 5.87307 8.33333 6.33331C8.33333 6.79354 7.96024 7.16664 7.5 7.16664H5C4.77899 7.16664 4.56702 7.25444 4.41074 7.41072C4.25446 7.567 4.16667 7.77896 4.16667 7.99997V15.5C4.16667 15.721 4.25446 15.933 4.41074 16.0892C4.56702 16.2455 4.77899 16.3333 5 16.3333H12.5C12.721 16.3333 12.933 16.2455 13.0893 16.0892C13.2455 15.933 13.3333 15.721 13.3333 15.5V13C13.3333 12.5397 13.7064 12.1666 14.1667 12.1666C14.6269 12.1666 15 12.5397 15 13V15.5C15 16.163 14.7366 16.7989 14.2678 17.2677C13.7989 17.7366 13.163 18 12.5 18H5C4.33696 18 3.70107 17.7366 3.23223 17.2677C2.76339 16.7989 2.5 16.163 2.5 15.5V7.99997C2.5 7.33693 2.76339 6.70105 3.23223 6.23221Z" fill="#454056"/>
<path fill-rule="evenodd" clip-rule="evenodd" d="M13.9941 2.8274C14.4819 2.3396 15.1435 2.06555 15.8333 2.06555C16.5232 2.06555 17.1848 2.3396 17.6726 2.8274C18.1604 3.3152 18.4344 3.9768 18.4344 4.66665C18.4344 5.35651 18.1604 6.01811 17.6726 6.50591L10.5893 13.5892C10.433 13.7455 10.221 13.8333 10 13.8333H7.5C7.03977 13.8333 6.66667 13.4602 6.66667 13V10.5C6.66667 10.279 6.75447 10.067 6.91075 9.91073L13.9941 2.8274ZM15.8333 3.73222C15.5855 3.73222 15.3478 3.83067 15.1726 4.00591L8.33334 10.8452V12.1667H9.65483L16.4941 5.3274C16.6693 5.15216 16.7678 4.91448 16.7678 4.66665C16.7678 4.41883 16.6693 4.18115 16.4941 4.00591C16.3188 3.83067 16.0812 3.73222 15.8333 3.73222Z" fill="#454056"/>
<path fill-rule="evenodd" clip-rule="evenodd" d="M12.7441 4.07741C13.0695 3.75198 13.5972 3.75198 13.9226 4.07741L16.4226 6.57741C16.748 6.90285 16.748 7.43049 16.4226 7.75593C16.0972 8.08136 15.5695 8.08136 15.2441 7.75593L12.7441 5.25593C12.4186 4.93049 12.4186 4.40285 12.7441 4.07741Z" fill="#454056"/>
</svg>
