<svg width="38" height="41" viewBox="0 0 38 41" fill="none" xmlns="http://www.w3.org/2000/svg">
<path fill-rule="evenodd" clip-rule="evenodd" d="M19.0003 0.667969C29.1258 0.667969 37.3337 8.8758 37.3337 19.0013C37.34 23.2324 35.8767 27.3344 33.194 30.6063L33.2307 30.6466L32.9887 30.852C31.2693 32.8854 29.1267 34.5189 26.7107 35.6386C24.2946 36.7583 21.6632 37.3371 19.0003 37.3346C13.592 37.3346 8.73368 34.9935 5.37868 31.2718L5.01201 30.8501L4.77001 30.6485L4.80668 30.6045C2.12434 27.3331 0.661121 23.2318 0.66701 19.0013C0.66701 8.8758 8.87484 0.667969 19.0003 0.667969ZM19.0003 28.168C15.5903 28.168 12.5085 29.2533 10.2132 30.7456C12.7479 32.6467 15.8319 33.6723 19.0003 33.668C22.1688 33.6723 25.2528 32.6467 27.7875 30.7456C25.1646 29.0652 22.1154 28.1708 19.0003 28.168ZM19.0003 4.33464C16.2403 4.33456 13.5363 5.11328 11.199 6.58129C8.86175 8.04931 6.98615 10.147 5.7878 12.6333C4.58945 15.1197 4.11698 17.8937 4.4247 20.6365C4.73242 23.3793 5.80784 25.9797 7.52734 28.1386C10.4992 26.0065 14.5545 24.5013 19.0003 24.5013C23.4462 24.5013 27.5015 26.0065 30.4733 28.1386C32.1928 25.9797 33.2683 23.3793 33.576 20.6365C33.8837 17.8937 33.4112 15.1197 32.2129 12.6333C31.0145 10.147 29.1389 8.04931 26.8017 6.58129C24.4644 5.11328 21.7604 4.33456 19.0003 4.33464ZM19.0003 8.0013C20.9453 8.0013 22.8105 8.77392 24.1858 10.1492C25.5611 11.5245 26.3337 13.3897 26.3337 15.3346C26.3337 17.2796 25.5611 19.1448 24.1858 20.5201C22.8105 21.8954 20.9453 22.668 19.0003 22.668C17.0554 22.668 15.1902 21.8954 13.8149 20.5201C12.4396 19.1448 11.667 17.2796 11.667 15.3346C11.667 13.3897 12.4396 11.5245 13.8149 10.1492C15.1902 8.77392 17.0554 8.0013 19.0003 8.0013ZM19.0003 11.668C18.0279 11.668 17.0953 12.0543 16.4076 12.7419C15.72 13.4295 15.3337 14.3622 15.3337 15.3346C15.3337 16.3071 15.72 17.2397 16.4076 17.9274C17.0953 18.615 18.0279 19.0013 19.0003 19.0013C19.9728 19.0013 20.9054 18.615 21.5931 17.9274C22.2807 17.2397 22.667 16.3071 22.667 15.3346C22.667 14.3622 22.2807 13.4295 21.5931 12.7419C20.9054 12.0543 19.9728 11.668 19.0003 11.668Z" fill="#008CE4"/>
</svg>
